<?xml version="1.0" encoding="UTF-8"?>
<svg xmlns="https://www.w3.org/2000/svg" xmlns:xlink="https://www.w3.org/1999/xlink" width="234pt" height="77pt" viewBox="0 0 552.76 181.42" version="1.1">
<g id="surface1">
<!-- <path style=" stroke:none;fill-rule:nonzero;fill:rgb(9.799194%,14.099121%,16.099548%);fill-opacity:1;" d="M 552.757813 181.421875 L 0 181.421875 L 0 0.00390625 L 552.757813 0.00390625 L 552.757813 181.421875 "/> -->
<path style=" stroke:none;fill-rule:nonzero;fill:rgb(31.799316%,72.499084%,34.899902%);fill-opacity:1;" d="M 125.519531 107.003906 C 125.519531 104.402344 124.953125 101.902344 123.84375 99.582031 L 123.472656 98.855469 C 123.316406 98.566406 123.125 98.230469 122.921875 97.910156 L 113.621094 81.800781 C 112.503906 79.859375 110.5 78.710938 108.261719 78.710938 C 106.023438 78.710938 104.019531 79.859375 102.902344 81.800781 L 93.667969 97.800781 C 93.398438 98.230469 93.207031 98.566406 93.027344 98.902344 L 92.65625 99.628906 C 92.5 99.953125 92.308594 100.398438 92.132813 100.859375 C 90.917969 104.046875 90.683594 107.5625 91.460938 111.019531 C 92.839844 117.234375 97.941406 122.367188 104.148438 123.785156 C 109.449219 124.992188 114.871094 123.804688 119.011719 120.496094 C 123.144531 117.199219 125.519531 112.28125 125.519531 107.003906 Z M 65.046875 124.253906 L 89.847656 124.253906 C 86.867188 121.070313 84.683594 117.136719 83.707031 112.746094 C 82.597656 107.769531 82.945313 102.683594 84.710938 98.039063 C 84.960938 97.382813 85.242188 96.742188 85.539063 96.109375 L 85.992188 95.226563 C 86.28125 94.679688 86.566406 94.1875 86.859375 93.710938 L 96.027344 77.832031 C 98.429688 73.671875 102.644531 71.175781 107.378906 70.886719 L 101.621094 60.910156 C 100.265625 58.570313 97.847656 57.167969 95.144531 57.167969 C 92.441406 57.167969 90.023438 58.570313 88.671875 60.910156 L 58.570313 113.039063 C 57.21875 115.382813 57.21875 118.175781 58.570313 120.519531 C 59.921875 122.859375 62.34375 124.253906 65.046875 124.253906 Z M 133.457031 107.003906 C 133.457031 114.710938 129.992188 121.894531 123.960938 126.703125 C 119.480469 130.273438 114 132.15625 108.328125 132.179688 C 108.304688 132.179688 108.285156 132.191406 108.261719 132.191406 L 65.046875 132.191406 C 59.472656 132.191406 54.484375 129.308594 51.691406 124.480469 C 48.90625 119.660156 48.914063 113.898438 51.699219 109.070313 L 81.796875 56.941406 C 84.582031 52.113281 89.570313 49.230469 95.144531 49.230469 C 100.722656 49.230469 105.710938 52.113281 108.496094 56.941406 L 123.929688 83.675781 C 123.976563 83.757813 123.976563 83.847656 124.019531 83.933594 L 129.730469 93.824219 C 129.957031 94.1875 130.242188 94.679688 130.503906 95.179688 L 130.976563 96.09375 C 132.617188 99.511719 133.457031 103.183594 133.457031 107.003906 Z M 117.105469 106.683594 C 117.105469 111.570313 113.144531 115.527344 108.261719 115.527344 C 103.378906 115.527344 99.417969 111.570313 99.417969 106.683594 C 99.417969 101.800781 103.378906 97.839844 108.261719 97.839844 C 113.144531 97.839844 117.105469 101.800781 117.105469 106.683594 "/>
<path style=" stroke:none;fill-rule:nonzero;fill:rgb(100%,100%,100%);fill-opacity:1;" d="M 234.828125 82.121094 L 244.3125 82.121094 L 225.429688 128.230469 L 216.289063 128.230469 L 197.492188 82.121094 L 207.15625 82.121094 L 221.035156 118.042969 L 234.828125 82.121094 "/>
<path style=" stroke:none;fill-rule:nonzero;fill:rgb(100%,100%,100%);fill-opacity:1;" d="M 284.527344 105.21875 C 284.527344 95.640625 278.554688 89.234375 270.125 89.234375 C 261.601563 89.234375 255.714844 95.640625 255.714844 105.21875 C 255.714844 114.703125 261.601563 121.117188 270.125 121.117188 C 278.554688 121.117188 284.527344 114.703125 284.527344 105.21875 Z M 246.757813 105.21875 C 246.757813 91.34375 256.949219 81.414063 270.125 81.414063 C 283.300781 81.414063 293.484375 91.34375 293.484375 105.21875 C 293.484375 119.007813 283.300781 128.9375 270.125 128.9375 C 256.949219 128.9375 246.757813 119.007813 246.757813 105.21875 "/>
<path style=" stroke:none;fill-rule:nonzero;fill:rgb(100%,100%,100%);fill-opacity:1;" d="M 299.523438 105.21875 C 299.523438 91.078125 309.714844 81.414063 322.976563 81.414063 C 334.398438 81.414063 343.445313 88.527344 344.671875 99.160156 L 335.714844 99.160156 C 334.566406 93.1875 329.386719 89.234375 322.890625 89.234375 C 314.894531 89.234375 308.480469 95.382813 308.480469 105.21875 C 308.480469 114.96875 314.894531 121.117188 322.800781 121.117188 C 329.476563 121.117188 334.921875 116.8125 336.066406 111.191406 L 344.671875 111.191406 C 343.265625 121.730469 334.222656 128.9375 322.714844 128.9375 C 309.359375 128.9375 299.523438 119.1875 299.523438 105.21875 "/>
<path style=" stroke:none;fill-rule:nonzero;fill:rgb(100%,100%,100%);fill-opacity:1;" d="M 438.875 105.21875 C 438.875 95.640625 432.902344 89.234375 424.472656 89.234375 C 415.949219 89.234375 410.0625 95.640625 410.0625 105.21875 C 410.0625 114.703125 415.949219 121.117188 424.472656 121.117188 C 432.902344 121.117188 438.875 114.703125 438.875 105.21875 Z M 438.613281 64.109375 L 447.394531 64.109375 L 447.394531 128.230469 L 438.699219 128.230469 L 438.699219 121.382813 C 435.628906 125.945313 429.742188 128.9375 422.976563 128.9375 C 410.679688 128.9375 401.105469 119.1875 401.105469 105.21875 C 401.105469 91.164063 410.679688 81.414063 422.976563 81.414063 C 429.652344 81.414063 435.539063 84.3125 438.613281 88.882813 L 438.613281 64.109375 "/>
<path style=" stroke:none;fill-rule:nonzero;fill:rgb(100%,100%,100%);fill-opacity:1;" d="M 494.191406 105.21875 C 494.191406 95.640625 488.21875 89.234375 479.789063 89.234375 C 471.265625 89.234375 465.378906 95.640625 465.378906 105.21875 C 465.378906 114.703125 471.265625 121.117188 479.789063 121.117188 C 488.21875 121.117188 494.191406 114.703125 494.191406 105.21875 Z M 456.421875 105.21875 C 456.421875 91.34375 466.613281 81.414063 479.789063 81.414063 C 492.964844 81.414063 503.148438 91.34375 503.148438 105.21875 C 503.148438 119.007813 492.964844 128.9375 479.789063 128.9375 C 466.613281 128.9375 456.421875 119.007813 456.421875 105.21875 "/>
<path style=" stroke:none;fill-rule:nonzero;fill:rgb(100%,100%,100%);fill-opacity:1;" d="M 183.550781 108.816406 C 183.550781 116.195313 177.402344 121.558594 169.324219 121.558594 C 163.527344 121.558594 160.011719 118.832031 160.011719 114.617188 C 160.011719 110.316406 163.613281 107.679688 170.375 107.679688 L 183.550781 107.679688 Z M 185.460938 82.121094 L 157.40625 82.121094 L 157.40625 89.675781 L 182.074219 89.675781 C 182.890625 89.675781 183.550781 90.335938 183.550781 91.152344 L 183.550781 101.175781 L 169.5 101.175781 C 158.167969 101.175781 151.136719 106.710938 151.136719 115.054688 C 151.136719 123.140625 157.902344 128.761719 167.65625 128.761719 C 174.59375 128.761719 180.566406 125.945313 183.726563 121.117188 C 184.433594 125.683594 187.769531 128.230469 192.773438 128.230469 L 197.953125 128.230469 L 197.953125 120.855469 L 195.933594 120.855469 C 193.300781 120.855469 192.15625 119.714844 192.15625 116.988281 L 192.15625 88.816406 C 192.15625 85.117188 189.160156 82.121094 185.460938 82.121094 "/>
<path style=" stroke:none;fill-rule:nonzero;fill:rgb(100%,100%,100%);fill-opacity:1;" d="M 382.945313 108.816406 C 382.945313 116.195313 376.792969 121.558594 368.71875 121.558594 C 362.917969 121.558594 359.40625 118.832031 359.40625 114.617188 C 359.40625 110.316406 363.007813 107.679688 369.769531 107.679688 L 382.945313 107.679688 Z M 384.855469 82.121094 L 356.800781 82.121094 L 356.800781 89.675781 L 381.46875 89.675781 C 382.285156 89.675781 382.945313 90.335938 382.945313 91.152344 L 382.945313 101.175781 L 368.894531 101.175781 C 357.5625 101.175781 350.53125 106.710938 350.53125 115.054688 C 350.53125 123.140625 357.296875 128.761719 367.050781 128.761719 C 373.988281 128.761719 379.960938 125.945313 383.121094 121.117188 C 383.824219 125.683594 387.164063 128.230469 392.167969 128.230469 L 397.347656 128.230469 L 397.347656 120.855469 L 395.328125 120.855469 C 392.695313 120.855469 391.550781 119.714844 391.550781 116.988281 L 391.550781 88.816406 C 391.550781 85.117188 388.554688 82.121094 384.855469 82.121094 "/>
</g>
</svg>
