<?xml version="1.0" encoding="UTF-8"?>
<svg xmlns="http://www.w3.org/2000/svg" xmlns:xlink="http://www.w3.org/1999/xlink" width="40pt" height="40pt" viewBox="0 0 269.29 266.44" version="1.1">
<defs>
<clipPath id="clip1">
  <path d="M 0 0 L 269.289063 0 L 269.289063 266.441406 L 0 266.441406 Z M 0 0 "/>
</clipPath>
</defs>
<g id="surface1">
<g clip-path="url(#clip1)" clip-rule="nonzero">
<path style=" stroke:none;fill-rule:nonzero;fill:rgb(31.799316%,72.499084%,34.899902%);fill-opacity:1;" d="M 243.796875 185.542969 C 243.796875 177.195313 241.988281 169.160156 238.421875 161.710938 L 237.222656 159.367188 C 236.726563 158.441406 236.113281 157.359375 235.464844 156.332031 L 205.589844 104.597656 C 202.003906 98.375 195.566406 94.671875 188.378906 94.671875 C 181.191406 94.671875 174.753906 98.375 171.167969 104.597656 L 141.507813 155.984375 C 140.644531 157.359375 140.027344 158.441406 139.449219 159.519531 L 138.253906 161.859375 C 137.757813 162.90625 137.140625 164.332031 136.578125 165.808594 C 132.675781 176.050781 131.929688 187.335938 134.421875 198.441406 C 138.851563 218.40625 155.230469 234.890625 175.167969 239.4375 C 192.195313 243.320313 209.605469 239.503906 222.902344 228.878906 C 236.179688 218.292969 243.796875 202.488281 243.796875 185.542969 Z M 49.589844 240.945313 L 129.242188 240.945313 C 119.671875 230.726563 112.660156 218.085938 109.523438 203.984375 C 105.953125 188 107.066406 171.667969 112.742188 156.746094 C 113.539063 154.640625 114.453125 152.582031 115.398438 150.558594 L 116.859375 147.71875 C 117.789063 145.960938 118.703125 144.382813 119.648438 142.855469 L 149.09375 91.851563 C 156.800781 78.488281 170.332031 70.484375 185.546875 69.546875 L 167.050781 37.511719 C 162.703125 29.992188 154.933594 25.492188 146.253906 25.492188 C 137.574219 25.492188 129.804688 29.992188 125.457031 37.511719 L 28.792969 204.929688 C 24.445313 212.449219 24.445313 221.429688 28.792969 228.945313 C 33.125 236.464844 40.910156 240.945313 49.589844 240.945313 Z M 269.289063 185.542969 C 269.289063 210.292969 258.171875 233.359375 238.800781 248.8125 C 224.410156 260.285156 206.800781 266.328125 188.585938 266.398438 C 188.515625 266.398438 188.453125 266.441406 188.378906 266.441406 L 49.589844 266.441406 C 31.679688 266.441406 15.664063 257.179688 6.699219 241.675781 C -2.246094 226.191406 -2.230469 207.6875 6.71875 192.183594 L 103.382813 24.765625 C 112.328125 9.261719 128.34375 0 146.253906 0 C 164.160156 0 180.179688 9.261719 189.125 24.765625 L 238.703125 110.621094 C 238.851563 110.882813 238.847656 111.179688 238.980469 111.445313 L 257.324219 143.21875 C 258.054688 144.382813 258.96875 145.960938 259.8125 147.566406 L 261.324219 150.507813 C 266.601563 161.476563 269.289063 173.277344 269.289063 185.542969 Z M 216.78125 184.519531 C 216.78125 200.207031 204.066406 212.921875 188.378906 212.921875 C 172.691406 212.921875 159.976563 200.207031 159.976563 184.519531 C 159.976563 168.835938 172.691406 156.117188 188.378906 156.117188 C 204.066406 156.117188 216.78125 168.835938 216.78125 184.519531 "/>
</g>
</g>
</svg>
